<svg width="160" height="164" viewBox="0 0 160 164" fill="none" xmlns="http://www.w3.org/2000/svg">
<path d="M140.834 79.8683C140.834 115.441 112.761 144.278 78.1312 144.278C43.5014 144.278 15.4282 115.441 15.4282 79.8683C15.4282 44.2956 43.5014 15.4582 78.1312 15.4582C112.761 15.4582 140.834 44.2956 140.834 79.8683Z" stroke="#FFBDBD" stroke-width="20"/>
<path d="M140.834 79.8683C140.834 93.7142 136.491 107.192 128.448 118.302C120.405 129.413 109.09 137.566 96.1821 141.552C83.2738 145.538 69.4585 145.145 56.7848 140.431C44.1109 135.717 33.2533 126.934 25.8212 115.383C18.3891 103.832 14.7784 90.1283 15.5243 76.3035C16.2704 62.4789 21.3333 49.2691 29.9625 38.6326C38.5919 27.9961 50.3281 20.4992 63.4315 17.2533C76.5348 14.0072 90.3076 15.185 102.708 20.612" stroke="#6C276C" stroke-width="20"/>
<path d="M140.834 79.8682C140.834 90.6397 138.204 101.239 133.185 110.697C128.167 120.154 120.919 128.168 112.105 134.004C103.292 139.84 93.1943 143.313 82.7366 144.104C72.2789 144.895 61.7951 142.98 52.2445 138.533C42.6938 134.086 34.3813 127.249 28.0677 118.649C21.7541 110.049 17.641 99.9597 16.1048 89.3043C14.5685 78.6491 15.6583 67.7681 19.2742 57.6574C22.8901 47.5465 28.9168 38.5287 36.8028 31.429" stroke="#FFBCE8" stroke-width="20"/>
<path d="M140.834 79.8683C140.834 90.2859 138.374 100.548 133.666 109.775C128.957 119.001 122.139 126.917 113.799 132.843C105.458 138.768 95.842 142.528 85.7761 143.798C75.7102 145.068 65.4948 143.811 56.0056 140.135" stroke="#FF58D5" stroke-opacity="0.9" stroke-width="26"/>
</svg>
