<svg width="13" height="13" viewBox="0 0 13 13" fill="none" xmlns="http://www.w3.org/2000/svg">
<g clip-path="url(#clip0_9_192)">
<path d="M4.84277 4.47563V2.47563V4.47563ZM8.84277 4.47563V2.47563V4.47563ZM4.34277 6.47563H9.34277H4.34277ZM3.34277 11.4756H10.3428C10.608 11.4756 10.8623 11.3703 11.0499 11.1827C11.2374 10.9952 11.3428 10.7408 11.3428 10.4756V4.47563C11.3428 4.21042 11.2374 3.95606 11.0499 3.76852C10.8623 3.58099 10.608 3.47563 10.3428 3.47563H3.34277C3.07756 3.47563 2.8232 3.58099 2.63567 3.76852C2.44813 3.95606 2.34277 4.21042 2.34277 4.47563V10.4756C2.34277 10.7408 2.44813 10.9952 2.63567 11.1827C2.8232 11.3703 3.07756 11.4756 3.34277 11.4756Z" stroke="#AFAFAF" stroke-width="1.5" stroke-linecap="round" stroke-linejoin="round"/>
</g>
<defs>
<clipPath id="clip0_9_192">
<rect width="12" height="12" fill="white" transform="translate(0.842773 0.975632)"/>
</clipPath>
</defs>
</svg>
